<?xml version="1.0" standalone="no"?>
<!DOCTYPE svg PUBLIC "-//W3C//DTD SVG 20010904//EN"
 "http://www.w3.org/TR/2001/REC-SVG-20010904/DTD/svg10.dtd">
<svg version="1.0" xmlns="http://www.w3.org/2000/svg"
 width="512.000000pt" height="512.000000pt" viewBox="0 0 512.000000 512.000000"
 preserveAspectRatio="xMidYMid meet">
<metadata>
Created by potrace 1.14, written by Peter Selinger 2001-2017
</metadata>
<g transform="translate(0.000000,512.000000) scale(0.100000,-0.100000)"
fill="#000000" stroke="none">
<path d="M2449 5116 c-2 -2 -22 -6 -44 -9 -136 -19 -333 -97 -402 -160 -13
-11 -23 -17 -23 -13 0 11 -143 -124 -193 -182 -60 -70 -142 -218 -167 -300 -6
-20 -14 -44 -17 -52 -3 -8 -7 -22 -8 -30 -1 -8 -6 -28 -9 -45 -18 -80 -25
-267 -13 -335 3 -14 8 -43 12 -65 13 -71 55 -188 96 -265 46 -84 106 -170 120
-170 5 0 9 -6 9 -13 0 -8 23 -35 52 -61 28 -25 49 -49 45 -52 -6 -6 -11 -7
-79 -19 -27 -4 -48 -11 -48 -16 0 -5 -3 -8 -7 -8 -28 5 -64 -3 -77 -17 -9 -8
-16 -13 -16 -9 0 7 -58 -23 -87 -45 -12 -10 -19 -20 -16 -24 3 -3 2 -6 -4 -6
-17 0 -8 -39 15 -63 13 -13 33 -29 45 -35 21 -11 76 -34 87 -36 3 -1 24 -14
47 -28 53 -35 111 -112 105 -140 -1 -5 1 -8 5 -8 8 0 15 -56 15 -130 1 -65
-13 -158 -31 -217 -5 -18 -7 -33 -4 -33 3 0 0 -7 -7 -15 -7 -8 -10 -15 -7 -15
3 0 0 -15 -8 -32 -7 -18 -13 -35 -13 -38 -1 -8 -12 -37 -59 -160 -52 -133
-113 -258 -172 -350 -23 -36 -44 -73 -47 -82 -4 -10 -10 -18 -15 -18 -5 0 -9
-6 -9 -13 0 -8 -9 -22 -20 -32 -11 -10 -20 -24 -20 -32 0 -7 -5 -13 -12 -13
-6 0 -9 -3 -5 -6 3 -4 1 -12 -6 -20 -27 -30 -37 -43 -37 -49 0 -8 -44 -69 -52
-73 -5 -2 -8 -10 -8 -18 0 -8 -4 -14 -10 -14 -5 0 -10 -7 -10 -15 0 -8 -4 -15
-10 -15 -5 0 -10 -7 -10 -15 0 -8 -4 -15 -10 -15 -5 0 -10 -6 -10 -13 0 -7 -9
-23 -19 -34 -11 -12 -17 -23 -14 -27 3 -3 -2 -8 -11 -12 -9 -3 -16 -10 -16
-14 0 -9 -76 -146 -95 -170 -6 -8 -20 -35 -30 -60 -11 -25 -23 -48 -28 -51 -5
-3 -8 -9 -8 -13 1 -3 -6 -22 -14 -42 -8 -20 -15 -42 -15 -49 0 -6 -3 -15 -7
-19 -4 -3 -8 -12 -10 -19 -1 -7 -10 -43 -18 -82 -20 -87 -25 -185 -11 -204 9
-12 8 -13 -2 -7 -12 7 -12 4 -1 -15 7 -13 11 -25 10 -27 -6 -5 11 -78 21 -89
6 -7 8 -13 4 -13 -3 0 6 -19 20 -42 13 -24 27 -51 31 -60 3 -10 9 -18 14 -18
5 0 9 -7 9 -15 0 -8 4 -15 9 -15 5 0 16 -11 25 -25 16 -24 15 -25 -12 -39 -37
-19 -113 -91 -105 -100 3 -3 2 -6 -4 -6 -12 0 -22 -21 -29 -57 -2 -13 0 -23 6
-23 6 0 9 -4 6 -9 -10 -16 10 -55 45 -89 l33 -32 1476 0 1477 0 36 37 c21 20
38 41 39 47 1 13 5 29 8 36 6 17 5 52 -2 56 -4 3 -6 10 -3 15 4 5 1 9 -4 9 -6
0 -11 5 -11 12 0 12 -76 88 -89 88 -4 0 -17 9 -29 20 -21 19 -21 21 -4 39 52
55 113 166 128 231 17 74 21 162 11 240 -9 66 -30 144 -40 151 -5 3 -8 9 -7
13 2 6 -7 38 -14 56 -13 29 -27 66 -27 70 0 3 -8 13 -16 23 -9 9 -12 17 -8 17
4 0 0 9 -10 20 -10 11 -14 20 -9 20 5 0 5 4 -1 8 -5 4 -21 27 -34 52 -43 79
-46 84 -63 104 -10 11 -18 23 -18 28 0 8 -138 220 -149 228 -3 3 -12 17 -20
32 -8 16 -18 28 -23 28 -5 0 -6 5 -3 10 3 6 1 10 -4 10 -6 0 -11 7 -11 15 0 8
-4 15 -8 15 -5 0 -17 18 -28 39 -10 22 -21 38 -25 36 -3 -2 -12 11 -19 30 -8
19 -17 35 -22 35 -4 0 -8 7 -8 15 0 8 -4 15 -10 15 -5 0 -10 7 -10 15 0 8 -4
15 -10 15 -5 0 -10 4 -10 10 0 5 -13 32 -30 60 -16 28 -30 57 -30 65 0 7 -4
15 -8 17 -7 3 -90 186 -96 213 -2 6 -9 24 -16 40 -7 17 -15 40 -17 52 -2 12
-10 34 -18 49 -8 15 -12 31 -9 36 3 4 0 8 -7 8 -7 0 -10 3 -6 6 3 3 -1 23 -8
45 -8 22 -14 42 -14 44 1 3 -3 24 -7 48 -4 23 -8 49 -9 57 0 8 -3 20 -5 25 -5
9 -4 68 2 163 1 17 5 32 10 32 4 0 5 6 2 14 -3 7 2 20 10 29 8 8 13 17 10 20
-3 3 14 25 39 49 57 56 73 68 91 68 8 0 18 5 21 10 4 6 11 8 16 5 5 -4 9 -1 9
5 0 6 5 8 10 5 6 -3 10 -1 10 5 0 6 4 9 8 6 14 -9 79 52 84 79 4 21 -3 32 -35
60 -22 19 -44 35 -48 35 -4 0 -20 5 -36 12 -15 6 -30 12 -33 13 -3 0 -30 8
-60 17 -30 9 -72 19 -92 22 -21 4 -38 8 -38 10 0 1 30 33 66 71 170 179 270
413 278 651 1 27 5 55 10 63 6 9 5 12 -1 8 -7 -4 -11 6 -10 26 0 55 -19 164
-38 221 -8 22 -12 43 -9 48 3 4 0 8 -5 8 -6 0 -11 7 -11 15 0 8 -4 23 -10 33
-5 9 -14 28 -20 42 -5 14 -16 34 -22 45 -7 11 -27 43 -45 71 -37 61 -60 90
-129 158 -82 83 -193 166 -220 166 -8 0 -14 3 -14 8 0 6 -54 35 -70 37 -3 0
-21 8 -40 17 -39 17 -90 32 -165 49 -46 11 -298 22 -306 15z"/>
</g>
</svg>
